<?xml version="1.0" standalone="no"?><!DOCTYPE svg PUBLIC "-//W3C//DTD SVG 1.1//EN" "http://www.w3.org/Graphics/SVG/1.1/DTD/svg11.dtd"><svg t="1647225186571" class="icon" viewBox="0 0 1024 1024" version="1.1" xmlns="http://www.w3.org/2000/svg" p-id="5860" xmlns:xlink="http://www.w3.org/1999/xlink" width="200" height="200"><defs><style type="text/css"></style></defs><path d="M67 868h890v89H67v-89z m704-375.1s74.7 81.7 74.7 130.4c0 40-34.8 74.7-74.7 74.7s-73-34.8-73-74.7c0-48.7 73-130.4 73-130.4z m-511.1-55.6h356.3L437.2 260 259.9 437.3zM680.6 399c22.6 22.6 22.6 57.4 0 78.2L477.2 680.6c-10.4 10.4-26.1 17.4-40 17.4s-27.8-7-38.2-17.4L193.9 477.2c-22.6-20.9-22.6-55.6 0-78.2l191.2-191.2-88.7-88.7L350.3 67l330.3 332z" p-id="5861" fill="#ffffff"></path></svg>