<?xml version="1.0" standalone="no"?><!DOCTYPE svg PUBLIC "-//W3C//DTD SVG 1.1//EN" "http://www.w3.org/Graphics/SVG/1.1/DTD/svg11.dtd"><svg t="1647225089899" class="icon" viewBox="0 0 1024 1024" version="1.1" xmlns="http://www.w3.org/2000/svg" p-id="1537" xmlns:xlink="http://www.w3.org/1999/xlink" width="200" height="200"><defs><style type="text/css"></style></defs><path d="M59.663523 754.52295V561.783551a29.991632 29.991632 0 0 1-38.624617-7.290077 29.927684 29.927684 0 0 1 5.88322-41.758072l32.741397-24.747892V110.821957h903.777681v314.816212c21.23075 9.847999 41.118591 22.126023 59.663523 36.002748V51.158434H0v763.028039h394.815213c-6.778492-19.184413-11.894336-39.008306-14.963842-59.663523H59.663523z" p-id="1538" fill="#ffffff"></path><path d="M771.597077 351.45844l206.10454 171.316805c13.876725-14.452258 29.160307-27.561606 45.467058-39.328046l-230.532692-199.134203a29.927684 29.927684 0 0 0-37.601449-1.342909L559.097733 450.322113l34.595891 45.594954c1.023169-0.575532 2.174233-0.703428 3.133454-1.470805l174.769999-142.987822z" p-id="1539" fill="#ffffff"></path><path d="M403.192406 251.763442a29.863736 29.863736 0 0 0-37.537501-1.342909L59.663523 481.592706v6.394804l-32.741397 24.747892a29.927684 29.927684 0 0 0-5.88322 41.758072 29.799788 29.799788 0 0 0 38.624617 7.290077v-6.394804c1.023169-0.575532 2.238181-0.767377 3.197402-1.406857l319.484419-241.467808L588.321988 490.225692c13.876725-14.516206 29.160307-27.497658 45.467058-39.264098L403.192406 251.763442z" p-id="1540" fill="#ffffff"></path><path d="M669.983638 214.289889m-56.338225 0a56.338225 56.338225 0 1 0 112.67645 0 56.338225 56.338225 0 1 0-112.67645 0Z" p-id="1541" fill="#ffffff"></path><path d="M963.441204 488.30725l52.053706 58.640355a29.288203 29.288203 0 0 1 7.481921 21.358646V461.768813c-18.544932-14.004621-38.368825-26.218697-59.727471-36.066696v62.605133h0.191844zM1023.104727 568.306251v0z" p-id="1542" fill="#ffffff"></path><path d="M963.441204 488.30725v89.527259l7.481921 8.441142a30.183476 30.183476 0 0 0 42.205708 2.557922 29.416099 29.416099 0 0 0 9.975894-20.27153v-0.255792a29.288203 29.288203 0 0 0-7.481921-21.358646l-52.181602-58.640355zM474.430525 784.130894a29.096359 29.096359 0 0 0-29.671891-30.05558H305.73559v60.047211l139.086992-0.063948a28.968463 28.968463 0 0 0 29.607943-29.927683zM628.481359 519.385999a24.875788 24.875788 0 0 0-9.336414 40.862799l68.744145 68.680197h0.063948a2.430026 2.430026 0 0 1-0.063948 3.389246l-55.698745 55.762693c-1.087117 0.959221-2.430026 0.959221-3.389246 0L560.120902 619.336789a24.683944 24.683944 0 0 0-40.926747 9.336414 178.862674 178.862674 0 0 0 42.14176 184.87379 177.519765 177.519765 0 0 0 179.94979 43.804409l145.993381 145.929432c12.917505 12.789608 30.950852 20.143633 50.135265 20.143634l5.56348-0.255793c20.143633-1.534753 39.583838-10.551427 54.483731-25.45132s23.980516-34.276151 25.451321-54.483732a71.238119 71.238119 0 0 0-20.015737-55.762693l-145.865484-145.929432a177.200025 177.200025 0 0 0-43.868357-179.885843 178.734778 178.734778 0 0 0-184.681946-42.269656z m177.200025 218.702304a24.747892 24.747892 0 0 0 5.179791 27.177918l157.184288 157.184288a22.189971 22.189971 0 0 1 5.499532 17.329919 37.025916 37.025916 0 0 1-11.063012 23.021296c-6.394804 6.394804-14.771998 10.423531-23.021295 11.063011a22.637607 22.637607 0 0 1-17.202023-5.56348l-157.12034-157.120339a24.939736 24.939736 0 0 0-27.177918-5.371636 128.535565 128.535565 0 0 1-179.054518-117.856242l34.915631 35.107475a51.989758 51.989758 0 0 0 73.412352 0.063948l55.570849-55.698744a51.861862 51.861862 0 0 0 0-73.476301l-34.979579-35.043527a129.814526 129.814526 0 0 1 90.48648 37.601449c37.281709 37.089864 48.152876 93.172298 27.369762 141.580965z" p-id="1543" fill="#ffffff"></path></svg>