<?xml version="1.0" standalone="no"?><!DOCTYPE svg PUBLIC "-//W3C//DTD SVG 1.1//EN" "http://www.w3.org/Graphics/SVG/1.1/DTD/svg11.dtd"><svg t="1647216519557" class="icon" viewBox="0 0 1066 1024" version="1.1" xmlns="http://www.w3.org/2000/svg" p-id="4109" xmlns:xlink="http://www.w3.org/1999/xlink" width="208.203125" height="200"><defs><style type="text/css"></style></defs><path d="M837.12 302.72c30.805333 0 56.106667 23.125333 58.666667 52.48l0.213333 4.992v435.669333c0 30.08-23.68 54.741333-53.802667 57.258667l-5.12 0.213333H324.949333c-30.805333 0-56.106667-23.082667-58.666666-52.48l-0.256-4.992v-287.232h48.512l0.042666 148.053334c25.856-17.92 49.237333-27.136 70.912-27.136 21.632 0 43.946667 12.672 73.557334 36.565333l6.229333 5.12 18.56 15.957333 23.978667 21.333334c9.301333 8.106667 15.445333 13.098667 19.328 15.616 12.8 8.192 27.605333 2.517333 45.056-22.058667 5.333333-7.509333 10.794667-17.408 17.536-31.573333l11.050666-24.149334 5.504-12.416c14.250667-32.085333 23.04-49.706667 33.792-65.834666 18.986667-28.458667 40.576-48.341333 67.2-54.954667 36.181333-8.96 71.253333 9.642667 102.656 54.528 13.994667 20.053333 26.581333 40.106667 37.674667 60.16l-0.085333-267.648a10.197333 10.197333 0 0 0-8.021334-9.856l-2.346666-0.298667h-406.613334V302.72h406.613334z m-117.930667 256.298667c-11.946667 2.986667-25.557333 15.530667-38.485333 34.901333-8.021333 11.989333-15.36 26.282667-26.496 51.072l-13.994667 31.36-6.912 14.933333c-7.68 16.042667-14.208 27.733333-21.248 37.674667-30.72 43.349333-72.96 59.562667-111.658666 34.688-4.693333-2.986667-9.813333-6.954667-16.384-12.501333l-16.341334-14.250667-21.333333-18.986667a612.906667 612.906667 0 0 0-18.261333-15.36c-20.778667-16.768-36.48-25.685333-42.624-25.685333-14.976 0-38.144 12.245333-67.712 38.016l-3.242667 2.858667v78.122666c0 4.821333 3.413333 8.832 8.021333 9.898667l2.389334 0.256H837.12a10.368 10.368 0 0 0 10.112-7.808l0.256-2.346667v-45.653333l-0.298667 0.128c-14.933333-51.541333-40.704-103.552-77.397333-155.989333-20.992-30.08-37.205333-38.656-50.602667-35.328z m-542.72-69.973334v122.069334c0 4.821333 3.413333 8.832 8.064 9.898666l2.346667 0.256h53.12v47.317334H186.88c-30.805333 0-56.106667-23.082667-58.666667-52.48L128 611.072v-122.026667h48.512z m347.605334-48c42.069333 0 76.202667 33.28 76.202666 74.325334 0 41.088-34.133333 74.368-76.202666 74.368-42.112 0-76.245333-33.28-76.245334-74.368 0-41.045333 34.133333-74.325333 76.245334-74.325334z m0 47.317334a27.392 27.392 0 0 0-27.733334 27.008c0 14.933333 12.373333 27.050667 27.733334 27.050666 15.274667 0 27.733333-12.117333 27.733333-27.050666 0-14.933333-12.458667-27.008-27.733333-27.008zM384.981333 326.4l79.872 81.706667a23.210667 23.210667 0 0 1 2.389334 29.824l-2.432 2.858666-79.872 81.322667-34.986667-32.725333 40.490667-41.301334-238.208-0.213333V400.554667l238.421333 0.213333-40.789333-41.728 35.114666-32.64zM715.392 170.666667c30.848 0 56.106667 23.082667 58.709333 52.48l0.213334 4.992v50.688H725.76V228.138667a10.197333 10.197333 0 0 0-8.021333-9.898667l-2.389334-0.256H186.88a10.368 10.368 0 0 0-10.112 7.808l-0.256 2.346667v117.248H128V228.138667c0-30.08 23.68-54.741333 53.802667-57.258667L186.922667 170.666667h528.469333z" fill="#6a6eb0" p-id="4110"></path></svg>